<?xml version="1.0" encoding="UTF-8"?>
<svg id="Capa_1" data-name="Capa 1" xmlns="http://www.w3.org/2000/svg" viewBox="0 0 1598.73 282.78">
  <path d="M119.61.27C49.19.27,0,47.87,0,116.04c0,59.25,37,102.97,92.74,113.56v-50.28c-24.16-9.4-38.73-32.2-38.73-63.28,0-41.32,25.63-68.03,65.31-68.03s66.18,26.7,66.18,68.03-22.79,66.02-61.23,67.88h-3.89c-6.33-.03-9.72,7.44-5.52,12.19l75.67,85.62c1.9,2.15,5.44.8,5.44-2.06v-53.18c0-4.08-1.51-8.02-4.24-11.06l-2.36-2.62c31.2-20.05,50.15-54.43,50.15-96.76C239.52,47.87,190.21.27,119.61.27Z"/>
  <path d="M804.46.4h-65.48c-10,0-18.11,8.11-18.11,18.11v211.62h83.6c77.53,0,119.01-42.44,119.01-114.86S882,.4,804.46.4ZM805.74,179.71h-27.44V63.23c0-6.86,5.56-12.42,12.42-12.42h15.02c36.69,0,58.39,20.42,58.39,64.45s-20.74,64.45-58.39,64.45Z"/>
  <g>
    <path d="M440.5,136.64V2.41h-55.8v131.13c0,61.23,33.01,93.09,89.69,96.15v-50.22c-23.52-2.93-33.89-17.7-33.89-42.83Z"/>
    <path d="M527.3,136.64c0,26.55-11.82,41.56-38.53,43.23l37.4,44c36.41-11.92,56.94-41.55,56.94-90.34V2.41h-55.8v134.23Z"/>
  </g>
  <polygon points="1441.6 .19 1370.17 .19 1439.3 108.87 1471.52 56.6 1441.6 .19"/>
  <path d="M1266.31,112.67c-.02-.88-.02-1.76-.06-2.63-2.47-64.72-47.65-109.49-111.66-109.78v45.91c34.63.42,62.84,28.86,62.84,63.58v12.08c0,34.98-28.62,63.6-63.6,63.6h0c-34.98,0-63.6-28.62-63.6-63.6v-12.08c0-25.2,14.85-47.09,36.23-57.37l-30.98-37.39c-29.65,16.89-49.25,47.23-53.35,85.47-.01.11-.02.21-.04.32-.15,1.43-.28,2.87-.39,4.32-.04.55-.07,1.12-.11,1.67-.07,1.17-.14,2.34-.19,3.52-.05,1.38-.07,2.77-.09,4.16,0,.4-.03.8-.03,1.2,0,.04,0,.08,0,.12,0,.05,0,.09,0,.14,0,1.01.04,1.99.06,2.99.02.88.02,1.76.06,2.63,2.48,64.93,47.95,109.8,112.29,109.8s105.44-40.5,111.85-100.22c.01-.11.02-.21.04-.32.15-1.43.28-2.87.39-4.32.04-.56.07-1.12.11-1.67.07-1.17.14-2.34.19-3.52.05-1.38.07-2.77.09-4.16,0-.4.03-.8.03-1.2,0-.04,0-.08,0-.12,0-.05,0-.09,0-.14,0-1.01-.04-1.99-.06-2.99Z"/>
  <polygon points="1384.89 231.29 1442.72 231.29 1587.27 0 1523.67 0 1379.11 231.29 1384.89 231.29"/>
  <polygon points="1527.29 231.29 1598.73 231.29 1529.59 122.61 1497.38 174.88 1527.29 231.29"/>
</svg>