<?xml version="1.0" encoding="UTF-8"?>
<svg id="Capa_1" data-name="Capa 1" xmlns="http://www.w3.org/2000/svg" viewBox="0 0 1788.17 229.43">
  <g>
    <path d="M97.04.22C39.91.22,0,38.84,0,94.14,0,142.21,30.02,177.68,75.24,186.27v-40.79c-19.6-7.63-31.42-26.13-31.42-51.34,0-33.53,20.8-55.19,52.98-55.19s53.69,21.66,53.69,55.19-18.49,53.56-49.67,55.07h-3.15c-5.14-.03-7.88,6.04-4.48,9.89l61.39,69.47c1.54,1.74,4.41.65,4.41-1.67v-43.15c0-3.31-1.23-6.51-3.44-8.97l-1.91-2.13c25.31-16.26,40.68-44.16,40.68-78.51C194.32,38.84,154.32.22,97.04.22Z"/>
    <path d="M652.67.32h-53.13c-8.12,0-14.69,6.58-14.69,14.69v171.69h67.82c62.9,0,96.56-34.43,96.56-93.19S715.58.32,652.67.32ZM653.71,145.8h-22.26V51.3c0-5.57,4.51-10.08,10.08-10.08h12.18c29.77,0,47.37,16.57,47.37,52.29s-16.83,52.29-47.37,52.29Z"/>
    <g>
      <path d="M357.38,110.86V1.95h-45.27v106.39c0,49.68,26.78,75.53,72.77,78.01v-40.74c-19.08-2.38-27.5-14.36-27.5-34.75Z"/>
      <path d="M427.81,110.86c0,21.54-9.59,33.72-31.26,35.08l30.34,35.7c29.54-9.67,46.19-33.71,46.19-73.29V1.95h-45.27v108.91Z"/>
    </g>
    <polygon points="1169.59 .15 1111.63 .15 1167.72 88.33 1193.86 45.92 1169.59 .15"/>
    <path d="M1027.37,91.41c-.02-.71-.02-1.43-.05-2.13C1025.32,36.77,988.66.45,936.74.21v37.25c28.1.34,50.98,23.41,50.98,51.59v9.8c0,28.38-23.22,51.6-51.6,51.6h0c-28.38,0-51.6-23.22-51.6-51.6v-9.8c0-20.44,12.05-38.2,29.39-46.54l-25.13-30.33c-24.05,13.7-39.96,38.32-43.29,69.34,0,.09-.02.17-.03.26-.12,1.16-.23,2.33-.31,3.51-.03.45-.06.9-.09,1.36-.06.95-.12,1.9-.15,2.85-.04,1.12-.06,2.24-.07,3.37,0,.33-.02.65-.02.98,0,.03,0,.07,0,.1,0,.04,0,.07,0,.11,0,.82.04,1.62.05,2.42.02.71.02,1.43.05,2.13,2.01,52.68,38.9,89.08,91.1,89.08s85.55-32.86,90.74-81.31c0-.09.02-.17.03-.26.12-1.16.23-2.33.31-3.51.03-.45.06-.9.09-1.36.06-.95.12-1.9.15-2.85.04-1.12.06-2.24.07-3.37,0-.33.02-.65.02-.98,0-.03,0-.07,0-.1,0-.04,0-.07,0-.11,0-.82-.04-1.62-.05-2.42Z"/>
    <polygon points="1123.58 187.65 1170.49 187.65 1287.78 0 1236.17 0 1118.89 187.65 1123.58 187.65"/>
    <polygon points="1239.11 187.65 1297.07 187.65 1240.98 99.47 1214.84 141.88 1239.11 187.65"/>
  </g>
  <rect x="1361.61" y="1.57" width="2.6" height="185.98"/>
  <g>
    <g>
      <path d="M1458.4,53.51c-3.25,0-6.3-.58-9.15-1.73-2.85-1.15-5.35-2.84-7.5-5.07-2.15-2.23-3.83-4.97-5.04-8.21-1.21-3.24-1.81-6.96-1.81-11.14,0-5.48,1.02-10.17,3.07-14.07,2.04-3.89,4.85-6.88,8.4-8.96,3.56-2.08,7.56-3.12,12.03-3.12,6.18,0,11.08,1.44,14.69,4.31,3.61,2.87,6.06,6.9,7.34,12.08l-8.58,1.36c-.95-2.97-2.51-5.35-4.67-7.13-2.16-1.78-4.92-2.67-8.26-2.67-3.37-.05-6.17.69-8.4,2.2-2.23,1.51-3.91,3.64-5.04,6.38-1.13,2.74-1.69,5.95-1.69,9.62s.56,6.86,1.67,9.57c1.12,2.71,2.79,4.82,5.04,6.33,2.24,1.51,5.05,2.29,8.42,2.34,2.53.02,4.75-.44,6.66-1.38,1.91-.94,3.46-2.37,4.67-4.29,1.21-1.92,2.02-4.32,2.44-7.2h-8.85v-6.59h17.78c.05.37.08.92.1,1.64.02.72.03,1.15.03,1.29,0,4.74-.94,8.95-2.81,12.64-1.87,3.68-4.55,6.57-8.04,8.66-3.49,2.09-7.66,3.14-12.51,3.14Z"/>
      <path d="M1488.72,52.46V14.81h7.43v9.17l-.91-1.19c.46-1.25,1.09-2.4,1.87-3.43.78-1.03,1.71-1.89,2.81-2.56.93-.63,1.96-1.12,3.09-1.48,1.13-.36,2.28-.58,3.47-.66,1.19-.08,2.34-.03,3.45.16v7.84c-1.12-.33-2.4-.43-3.85-.31-1.45.12-2.76.52-3.92,1.22-1.16.63-2.11,1.43-2.84,2.41-.73.98-1.27,2.09-1.62,3.33-.35,1.24-.52,2.59-.52,4.03v19.14h-8.44Z"/>
      <path d="M1532.47,53.51c-3.76,0-7.05-.85-9.87-2.55-2.81-1.7-4.99-4.04-6.54-7.02-1.55-2.99-2.32-6.42-2.32-10.3s.79-7.41,2.37-10.39c1.58-2.97,3.78-5.3,6.59-6.97,2.81-1.67,6.07-2.51,9.76-2.51s7.09.85,9.9,2.54c2.81,1.7,5,4.04,6.55,7.02,1.56,2.99,2.34,6.42,2.34,10.3s-.78,7.35-2.35,10.34c-1.57,2.99-3.76,5.32-6.57,7.01-2.81,1.68-6.1,2.53-9.87,2.53ZM1532.47,45.63c3.35,0,5.83-1.12,7.46-3.35,1.63-2.23,2.44-5.11,2.44-8.65s-.83-6.56-2.48-8.73c-1.65-2.17-4.13-3.26-7.43-3.26-2.25,0-4.11.51-5.56,1.52-1.45,1.01-2.53,2.42-3.22,4.22-.7,1.8-1.05,3.89-1.05,6.26,0,3.65.83,6.56,2.49,8.73,1.66,2.17,4.11,3.26,7.34,3.26Z"/>
      <path d="M1565.56,52.46l-11.5-37.72,8.23.07,7.36,24.16,7.46-24.16h7.08l7.43,24.16,7.39-24.16h8.23l-11.5,37.65h-6.55l-8.54-25.9-8.51,25.9h-6.55Z"/>
      <path d="M1609.31,21.4v-6.59h26.25v6.59h-26.25ZM1635.56,52.46c-2.49.46-4.92.67-7.3.61-2.38-.06-4.51-.5-6.4-1.32s-3.31-2.13-4.29-3.92c-.86-1.63-1.31-3.29-1.36-4.98-.05-1.7-.07-3.61-.07-5.75V4.36h8.37v32.25c0,1.51.02,2.84.05,3.97.03,1.14.27,2.07.71,2.79.84,1.39,2.17,2.17,4.01,2.34,1.84.16,3.93.07,6.28-.28v7.04Z"/>
      <path d="M1643.61,52.46V2.26h7.5v26.42h1.01v23.78h-8.51ZM1669.72,52.46v-18.13c0-1.19-.08-2.5-.24-3.94-.16-1.44-.54-2.83-1.13-4.17-.59-1.34-1.48-2.43-2.65-3.29-1.17-.86-2.76-1.29-4.76-1.29-1.07,0-2.13.17-3.17.52s-1.99.95-2.84,1.8c-.85.85-1.53,2.01-2.04,3.49-.51,1.48-.77,3.36-.77,5.66l-4.99-2.13c0-3.21.62-6.11,1.87-8.72,1.24-2.6,3.07-4.68,5.49-6.22,2.42-1.55,5.39-2.32,8.92-2.32,2.79,0,5.09.47,6.9,1.39,1.81.93,3.25,2.12,4.32,3.56,1.07,1.44,1.86,2.98,2.37,4.6.51,1.63.84,3.17.99,4.62.15,1.45.23,2.63.23,3.54v21.02h-8.51Z"/>
    </g>
    <g>
      <path d="M1452.39,79.27l-10.88,29.91c-1.39,3.84-.35,4.88,4.95,5.09l-1.19,3.56h-17.01l1.12-3.56c4.81-.21,6.34-1.39,7.67-5.16l11.71-31.58c1.26-3.42.49-4.74-4.25-5.02l1.12-3.49h14.57l2.86,37.16,25.31-37.16h15.83l-1.19,3.49c-4.67.28-6.48,1.32-7.67,5.16l-9.27,31.51c-1.12,3.7-.42,4.88,4.25,5.09l-1.12,3.56h-20.85l1.12-3.56c5.16-.21,6.69-1.53,7.81-5.23l8.72-29.35-26.49,38.98h-4.18l-2.93-39.39Z"/>
      <path d="M1527.9,110.71c0,.77.35,1.05.98,1.05,1.74,0,4.04-2.16,6.48-5.02l2.37,1.88c-3.97,5.72-10.95,9.97-15.2,9.97-2.16,0-3.63-1.32-3.63-3.35,0-1.32.56-3.07,1.88-5.93l6.83-14.92h-1.32c-9.48,17.5-16.52,24.47-22.52,24.47-4.32,0-7.25-3.49-7.25-9.27,0-13.25,15.2-29.42,28.87-29.42,1.95,0,3.63.35,5.09.91l1.12-2.51h8.23l-11.3,29.91c-.42,1.05-.63,1.81-.63,2.23ZM1507.05,112.52c3.07,0,8.58-5.65,14.22-14.57,2.44-3.77,5.3-8.79,6.41-11.43-1.05-1.81-2.65-2.72-4.74-2.72-7.95,0-18.48,13.6-18.48,24.05,0,3,.84,4.67,2.58,4.67Z"/>
      <path d="M1552.23,87.07c0-.7-.42-1.05-1.05-1.05-1.26,0-3.9,1.88-6.55,5.02l-2.37-1.88c4.04-5.72,11.16-9.97,15.76-9.97,2.16,0,3.56.98,3.56,3.07,0,1.46-.56,3.35-2.09,6.48l-7.32,14.71h1.26c4.67-8.65,7.74-13.94,11.23-17.99,3.56-4.04,6.83-6.34,10.18-6.34,3.7,0,5.65,2.51,5.65,5.09s-1.81,5.23-4.74,5.23c-1.95,0-2.72-.84-3.63-1.67-.84-.7-1.19-1.19-2.23-1.19-1.32,0-2.93,1.05-5.02,3.49-4.74,5.58-9.48,14.85-11.85,19.59l-4.11,8.16h-8.85l11.57-28.59c.42-1.05.63-1.74.63-2.16Z"/>
      <path d="M1586.81,77.17c0-1.6-1.26-2.3-4.04-2.58l1.19-3.28,11.36-3.76h2.93l-6.69,17.85c-2.58,6.83-4.74,11.64-7.25,18.06h1.39c3.9-8.92,7.88-15.41,13.67-19.87,3.77-3,7.95-4.46,11.57-4.46,4.32,0,6.9,2.3,6.9,5.72,0,5.37-6.76,10.88-18.62,14.78.56,3.69,1.32,6.41,2.16,8.51,1.33,3.28,2.51,4.53,4.18,4.53,1.46,0,2.79-.84,4.95-3.97l2.51,1.6c-3.42,6-6.07,8.58-9.83,8.58-4.04,0-6.34-2.23-8.3-7.53-.84-2.37-1.81-5.58-2.58-9.69l-3.49.77-1.39,3.28-4.67,12.13h-9.06l12.69-38.49c.35-1.05.42-1.81.42-2.16ZM1602.5,95.02c3.97-2.16,6.28-4.95,6.28-7.25,0-1.81-1.12-2.72-3-2.72-5.16,0-10.95,5.37-15.62,14.5,4.88-1.12,8.92-2.72,12.34-4.53Z"/>
      <path d="M1618.19,105.34c0-7.67,3.56-14.71,8.65-19.59,4.25-4.25,9.76-6.62,15.06-6.62s9.27,2.65,9.27,6.9c0,3.35-2.37,7.53-7.32,10.39-3.97,2.37-9.9,4.25-17.64,4.6l-.07,1.88c0,5.79,2.51,8.79,6.83,8.79,3.42,0,6.83-2.16,10.04-8.3l3.28.84c-3.7,9.76-10.04,14.64-16.38,14.64-7.04,0-11.71-5.23-11.71-13.53ZM1631.23,97.11c6.69,0,12.41-5.86,12.41-10.95,0-2.02-1.19-3.42-3.49-3.42-3.14,0-6.76,2.37-9.34,5.86-1.67,2.3-2.93,4.95-3.7,7.6,1.32.7,2.72.91,4.11.91Z"/>
      <path d="M1651.65,115.45c0-1.19.35-2.58,1.12-4.46l10.46-25.87h-7.25l1.19-3.63c6.41-1.95,11.43-5.37,15.34-9.9h3.63l-3.42,8.58h11.99l-1.53,4.95h-12.41l-9.41,23.5c-.42.98-.56,1.81-.56,2.09,0,.77.42,1.12,1.12,1.12,2.02,0,6.55-3.76,10.95-8.78l2.44,2.09c-5.37,6.69-14.08,13.74-19.87,13.74-2.72,0-3.77-1.39-3.77-3.42Z"/>
      <path d="M1680.73,115.73c0-1.25.28-2.79,1.05-4.6l8.99-21.75c.49-1.05.63-1.81.63-2.3s-.28-.98-.91-.98c-1.6,0-4.04,2.09-6.41,4.95l-2.3-1.95c3.56-5.23,10.53-9.9,15.13-9.9,2.37,0,3.76,1.19,3.76,3.07,0,1.19-.42,2.72-1.19,4.6l-8.99,21.82c-.35.84-.63,1.6-.63,2.23s.35.98.91.98c1.74,0,4.11-2.09,6.48-4.88l2.37,1.88c-3.63,5.23-10.6,9.97-15.13,9.97-2.44,0-3.76-1.26-3.76-3.14ZM1694.18,70.55c0-3,2.44-5.37,5.58-5.37s5.51,2.3,5.51,5.37c0,3.28-2.37,5.65-5.51,5.65s-5.58-2.37-5.58-5.65Z"/>
      <path d="M1726.33,115.66c0-1.12.35-2.65,1.12-4.46l7.53-18.34c.63-1.53.98-2.79.98-3.9,0-1.53-.63-2.65-2.16-2.65s-3.35,1.12-5.72,3.97c-5.02,5.93-10.11,14.99-12.34,19.38l-4.11,8.16h-8.44l10.6-28.73c.28-.84.49-1.6.49-2.09,0-.7-.35-.98-.91-.98-1.46,0-4.25,2.02-6.83,5.02l-2.23-1.88c4.04-5.72,11.23-9.97,15.76-9.97,2.09,0,3.49.98,3.49,3.07,0,1.46-.63,3.35-2.02,6.55l-6.62,14.64h1.25c2.79-4.95,7.11-12.76,11.92-17.99,3.63-4.04,7.46-6.27,11.09-6.27,3.9,0,5.93,2.37,5.93,5.65,0,1.19-.28,2.44-.91,3.97l-8.16,19.94c-.42,1.05-.63,1.74-.63,2.23,0,.56.35.91.91.91,1.74,0,4.32-2.23,6.62-4.88l2.23,1.88c-3.56,5.16-10.53,9.9-15.06,9.9-2.51,0-3.77-1.19-3.77-3.14Z"/>
      <path d="M1741.59,124.52c0-3.42,4.53-6.62,13.39-9.62-1.46-1.05-2.16-2.23-2.16-3.49,0-1.74,1.74-3.42,5.51-5.23-4.81-.91-7.53-4.25-7.53-9.34,0-1.39.21-2.65.7-4.18,2.58-7.67,10.67-13.46,18.96-13.46,1.95,0,3.7.35,5.16.98h12.55l-1.6,4.95h-6.28c.35.98.49,2.09.49,3.28,0,1.6-.28,3.28-.91,4.88-2.79,7.32-10.25,12.83-18.2,13.11-1.25.84-1.74,1.46-1.74,2.09,0,.91,1.05,1.74,3.28,2.72l8.72,3.76c4.46,1.88,6.55,4.11,6.55,6.76,0,5.3-9.06,9.55-20.71,9.55-9.9,0-16.18-2.65-16.18-6.76ZM1759.58,127.65c6.48,0,11.02-1.67,11.02-3.9,0-1.19-1.32-2.3-4.46-3.63l-8.3-3.63h-.07c-5.37,1.81-8.65,4.46-8.65,6.83,0,2.65,3.97,4.32,10.46,4.32ZM1771.51,92.86c.98-2.37,1.53-4.67,1.53-6.41,0-2.51-1.05-3.83-3-3.83-3.42,0-7.46,4.04-9.97,9.9-1.12,2.51-1.6,4.6-1.6,6.34,0,2.58,1.05,4.04,3.07,4.04,3.35,0,7.6-4.25,9.97-10.04Z"/>
    </g>
    <g>
      <path d="M1458.92,186.68c-5.02,0-9.32-1.1-12.9-3.29-3.58-2.2-6.33-5.26-8.25-9.19-1.92-3.93-2.88-8.48-2.88-13.67s.96-9.74,2.88-13.67c1.92-3.93,4.67-6.99,8.25-9.19,3.58-2.2,7.88-3.29,12.9-3.29,5.79,0,10.61,1.45,14.47,4.34,3.86,2.89,6.57,6.79,8.12,11.7l-8.47,2.34c-.98-3.28-2.64-5.84-4.98-7.69-2.35-1.85-5.39-2.77-9.13-2.77-3.37,0-6.18.76-8.42,2.27-2.24,1.51-3.93,3.63-5.05,6.36-1.13,2.73-1.7,5.93-1.73,9.6,0,3.67.56,6.87,1.69,9.6,1.13,2.73,2.82,4.85,5.07,6.36,2.25,1.51,5.07,2.27,8.44,2.27,3.74,0,6.79-.93,9.13-2.79,2.35-1.86,4.01-4.41,4.98-7.67l8.47,2.34c-1.56,4.9-4.26,8.8-8.12,11.7-3.86,2.89-8.68,4.34-14.47,4.34Z"/>
      <path d="M1505.81,186.68c-3.77,0-7.05-.85-9.87-2.55-2.81-1.7-4.99-4.04-6.54-7.02-1.55-2.99-2.32-6.42-2.32-10.3s.79-7.41,2.37-10.39c1.58-2.97,3.78-5.3,6.59-6.97,2.81-1.67,6.07-2.51,9.76-2.51s7.09.85,9.9,2.54c2.81,1.7,5,4.04,6.55,7.02,1.56,2.99,2.34,6.42,2.34,10.3s-.78,7.35-2.35,10.34c-1.57,2.99-3.76,5.32-6.57,7.01-2.81,1.68-6.1,2.53-9.87,2.53ZM1505.81,178.8c3.35,0,5.83-1.12,7.46-3.35,1.63-2.23,2.44-5.11,2.44-8.65s-.83-6.56-2.48-8.73c-1.65-2.17-4.13-3.26-7.42-3.26-2.25,0-4.11.51-5.56,1.52-1.45,1.01-2.53,2.42-3.22,4.22-.7,1.8-1.05,3.89-1.05,6.26,0,3.65.83,6.56,2.49,8.73,1.66,2.17,4.11,3.26,7.34,3.26Z"/>
      <path d="M1532.2,185.63v-37.65h7.43v11.68h1.05v25.97h-8.47ZM1554.89,185.63v-22.76c0-2.63-.64-4.67-1.92-6.14-1.28-1.46-3.02-2.2-5.23-2.2s-3.85.73-5.14,2.2c-1.29,1.46-1.93,3.37-1.93,5.72l-3.76-2.51c0-2.44.6-4.64,1.81-6.59,1.21-1.95,2.84-3.49,4.9-4.62,2.06-1.13,4.36-1.69,6.92-1.69,2.81,0,5.16.6,7.06,1.8,1.89,1.2,3.31,2.82,4.25,4.88.94,2.06,1.41,4.37,1.41,6.96v24.96h-8.37ZM1577.48,185.63v-22.87c0-2.58-.64-4.6-1.92-6.05-1.28-1.45-3.01-2.18-5.19-2.18-1.35,0-2.56.31-3.63.92-1.07.62-1.92,1.52-2.54,2.72-.63,1.2-.94,2.62-.94,4.27l-3.73-2.2c-.02-2.6.56-4.9,1.76-6.88,1.2-1.99,2.82-3.54,4.86-4.65,2.04-1.12,4.32-1.67,6.83-1.67,4.16,0,7.35,1.25,9.57,3.75,2.22,2.5,3.33,5.78,3.33,9.85v25h-8.4Z"/>
      <path d="M1594.88,202.37v-54.38h7.43v26.42h1.05v27.96h-8.47ZM1613.04,186.68c-3.67,0-6.75-.87-9.24-2.61-2.49-1.74-4.36-4.12-5.61-7.13-1.25-3.01-1.88-6.38-1.88-10.13s.63-7.18,1.88-10.18c1.25-3,3.1-5.36,5.53-7.09,2.43-1.73,5.43-2.6,9.01-2.6s6.64.87,9.26,2.6,4.64,4.09,6.08,7.08c1.44,2.99,2.16,6.39,2.16,10.2s-.71,7.15-2.13,10.14c-1.42,3-3.42,5.37-6,7.11s-5.6,2.61-9.06,2.61ZM1611.75,179.15c2.18,0,3.99-.55,5.4-1.64,1.42-1.09,2.47-2.57,3.16-4.44.68-1.87,1.03-3.96,1.03-6.26s-.35-4.35-1.05-6.22c-.7-1.87-1.78-3.36-3.24-4.46-1.46-1.1-3.32-1.66-5.58-1.66s-3.88.52-5.23,1.55c-1.35,1.03-2.34,2.48-2.98,4.32-.64,1.85-.96,4-.96,6.47s.32,4.59.96,6.45c.64,1.86,1.65,3.31,3.03,4.34,1.38,1.03,3.2,1.55,5.46,1.55Z"/>
      <path d="M1648.42,186.68c-2.72,0-5.02-.52-6.9-1.55-1.88-1.03-3.31-2.41-4.27-4.13-.96-1.72-1.45-3.61-1.45-5.68,0-1.81.3-3.44.91-4.9.6-1.45,1.53-2.71,2.79-3.77,1.25-1.06,2.88-1.92,4.88-2.6,1.51-.49,3.28-.93,5.32-1.32,2.03-.39,4.24-.76,6.62-1.1,2.38-.34,4.87-.7,7.48-1.1l-3,1.71c.02-2.6-.56-4.52-1.74-5.75-1.19-1.23-3.18-1.85-6-1.85-1.7,0-3.33.4-4.92,1.19-1.58.79-2.68,2.15-3.31,4.08l-7.67-2.41c.93-3.18,2.7-5.74,5.32-7.67,2.61-1.93,6.14-2.89,10.58-2.89,3.35,0,6.29.55,8.84,1.64,2.55,1.09,4.43,2.88,5.66,5.37.67,1.32,1.08,2.68,1.22,4.06.14,1.38.21,2.89.21,4.51v23.11h-7.36v-8.16l1.22,1.32c-1.7,2.72-3.68,4.71-5.94,5.98s-5.1,1.9-8.49,1.9ZM1650.09,179.99c1.91,0,3.53-.34,4.88-1.01s2.42-1.5,3.22-2.48c.8-.98,1.34-1.89,1.62-2.75.44-1.07.69-2.29.75-3.68.06-1.38.09-2.5.09-3.36l2.58.77c-2.53.4-4.71.74-6.52,1.05-1.81.3-3.37.59-4.67.85-1.3.27-2.45.56-3.45.89-.98.35-1.8.76-2.48,1.22-.67.47-1.19,1-1.55,1.6-.36.6-.54,1.31-.54,2.13,0,.93.23,1.75.7,2.46.47.71,1.14,1.27,2.04,1.69.89.42,2,.63,3.33.63Z"/>
      <path d="M1677.98,185.63v-37.65h7.5v11.68h1.01v25.97h-8.51ZM1704.09,185.63v-18.13c0-1.19-.08-2.5-.24-3.94-.16-1.44-.54-2.83-1.13-4.17s-1.48-2.43-2.65-3.29c-1.17-.86-2.76-1.29-4.76-1.29-1.07,0-2.13.17-3.17.52s-1.99.95-2.84,1.8-1.53,2.01-2.04,3.49c-.51,1.48-.77,3.36-.77,5.66l-4.98-2.13c0-3.21.62-6.11,1.87-8.72,1.24-2.6,3.07-4.68,5.49-6.22,2.42-1.55,5.39-2.32,8.92-2.32,2.79,0,5.09.47,6.9,1.39,1.81.93,3.25,2.12,4.32,3.56,1.07,1.44,1.86,2.98,2.37,4.6.51,1.63.84,3.17.99,4.62.15,1.45.23,2.63.23,3.54v21.02h-8.51Z"/>
      <path d="M1725.22,202.37l7.25-19.91.14,5.86-16.42-40.33h8.75l11.64,29.84h-2.23l11.33-29.84h8.4l-20.99,54.38h-7.88Z"/>
    </g>
  </g>
</svg>