<?xml version="1.0" encoding="UTF-8"?>
<svg id="Capa_1" data-name="Capa 1" xmlns="http://www.w3.org/2000/svg" viewBox="0 0 1598.73 412.17">
  <defs>
    <style>
      .cls-1 {
        fill: #fff;
      }
    </style>
  </defs>
  <g>
    <path class="cls-1" d="M119.61.27C49.19.27,0,47.87,0,116.04c0,59.25,37,102.97,92.74,113.56v-50.28c-24.16-9.4-38.73-32.2-38.73-63.28,0-41.32,25.63-68.03,65.31-68.03s66.18,26.7,66.18,68.03-22.79,66.02-61.23,67.88h-3.89c-6.33-.03-9.72,7.44-5.52,12.19l75.67,85.62c1.9,2.15,5.44.8,5.44-2.06v-53.18c0-4.08-1.51-8.02-4.24-11.06l-2.36-2.62c31.2-20.05,50.15-54.43,50.15-96.76C239.52,47.87,190.21.27,119.61.27Z"/>
    <path class="cls-1" d="M804.46.4h-65.48c-10,0-18.11,8.11-18.11,18.11v211.62h83.6c77.53,0,119.01-42.44,119.01-114.86S882,.4,804.46.4ZM805.74,179.71h-27.44V63.23c0-6.86,5.56-12.42,12.42-12.42h15.02c36.69,0,58.39,20.42,58.39,64.45s-20.74,64.45-58.39,64.45Z"/>
    <g>
      <path class="cls-1" d="M440.5,136.64V2.41h-55.8v131.13c0,61.23,33.01,93.09,89.69,96.15v-50.22c-23.52-2.93-33.89-17.7-33.89-42.83Z"/>
      <path class="cls-1" d="M527.3,136.64c0,26.55-11.82,41.56-38.53,43.23l37.4,44c36.41-11.92,56.94-41.55,56.94-90.34V2.41h-55.8v134.23Z"/>
    </g>
    <polygon class="cls-1" points="1441.6 .19 1370.17 .19 1439.3 108.87 1471.52 56.6 1441.6 .19"/>
    <path class="cls-1" d="M1266.31,112.67c-.02-.88-.02-1.76-.06-2.63-2.47-64.72-47.65-109.49-111.66-109.78v45.91c34.63.42,62.84,28.86,62.84,63.58v12.08c0,34.98-28.62,63.6-63.6,63.6h0c-34.98,0-63.6-28.62-63.6-63.6v-12.08c0-25.2,14.85-47.09,36.23-57.37l-30.98-37.39c-29.65,16.89-49.25,47.23-53.35,85.47-.01.11-.02.21-.04.32-.15,1.43-.28,2.87-.39,4.32-.04.55-.07,1.12-.11,1.67-.07,1.17-.14,2.34-.19,3.52-.05,1.38-.07,2.77-.09,4.16,0,.4-.03.8-.03,1.2,0,.04,0,.08,0,.12,0,.05,0,.09,0,.14,0,1.01.04,1.99.06,2.99.02.88.02,1.76.06,2.63,2.48,64.93,47.95,109.8,112.29,109.8s105.44-40.5,111.85-100.22c.01-.11.02-.21.04-.32.15-1.43.28-2.87.39-4.32.04-.56.07-1.12.11-1.67.07-1.17.14-2.34.19-3.52.05-1.38.07-2.77.09-4.16,0-.4.03-.8.03-1.2,0-.04,0-.08,0-.12,0-.05,0-.09,0-.14,0-1.01-.04-1.99-.06-2.99Z"/>
    <polygon class="cls-1" points="1384.89 231.29 1442.72 231.29 1587.27 0 1523.67 0 1379.11 231.29 1384.89 231.29"/>
    <polygon class="cls-1" points="1527.29 231.29 1598.73 231.29 1529.59 122.61 1497.38 174.88 1527.29 231.29"/>
  </g>
  <g>
    <path class="cls-1" d="M76.9,386.93c-5.23,0-10.14-.93-14.72-2.78-4.58-1.85-8.6-4.57-12.06-8.16-3.46-3.59-6.16-7.99-8.1-13.21-1.94-5.21-2.92-11.19-2.92-17.92,0-8.82,1.64-16.36,4.93-22.63,3.29-6.26,7.79-11.06,13.51-14.41,5.72-3.34,12.17-5.02,19.35-5.02,9.94,0,17.82,2.31,23.64,6.93,5.81,4.62,9.75,11.09,11.8,19.43l-13.79,2.19c-1.53-4.78-4.04-8.61-7.51-11.47-3.48-2.86-7.91-4.29-13.29-4.29-5.42-.07-9.93,1.1-13.51,3.53s-6.29,5.85-8.1,10.26c-1.81,4.41-2.72,9.57-2.72,15.48s.9,11.04,2.69,15.39c1.79,4.36,4.49,7.75,8.1,10.18,3.61,2.43,8.12,3.68,13.54,3.76,4.07.04,7.64-.7,10.71-2.21,3.06-1.51,5.57-3.81,7.51-6.9,1.94-3.08,3.25-6.94,3.93-11.58h-14.24v-10.6h28.6c.07.6.13,1.48.17,2.64.04,1.16.06,1.85.06,2.07,0,7.63-1.5,14.4-4.51,20.33-3.01,5.92-7.32,10.57-12.93,13.93-5.61,3.36-12.32,5.05-20.13,5.05Z"/>
    <path class="cls-1" d="M125.69,385.25v-60.56h11.94v14.75l-1.46-1.91c.75-2.02,1.75-3.86,3-5.52,1.25-1.66,2.76-3.04,4.51-4.12,1.49-1.01,3.15-1.8,4.96-2.38,1.81-.58,3.67-.93,5.58-1.07,1.91-.13,3.76-.05,5.55.25v12.62c-1.79-.52-3.86-.69-6.2-.5-2.34.19-4.44.84-6.31,1.96-1.87,1.01-3.39,2.3-4.57,3.87-1.18,1.57-2.05,3.36-2.61,5.36-.56,2-.84,4.16-.84,6.48v30.79h-13.57Z"/>
    <path class="cls-1" d="M196.06,386.93c-6.06,0-11.35-1.37-15.87-4.09-4.52-2.73-8.03-6.5-10.51-11.3-2.49-4.8-3.73-10.33-3.73-16.57s1.27-11.92,3.81-16.71c2.54-4.78,6.07-8.52,10.6-11.21,4.52-2.69,9.76-4.04,15.7-4.04s11.4,1.36,15.93,4.09c4.52,2.73,8.04,6.5,10.54,11.3,2.5,4.8,3.76,10.33,3.76,16.57s-1.26,11.82-3.78,16.63c-2.52,4.8-6.05,8.56-10.57,11.27-4.52,2.71-9.81,4.07-15.87,4.07ZM196.06,374.26c5.38,0,9.38-1.79,12-5.38,2.62-3.59,3.93-8.22,3.93-13.91s-1.33-10.55-3.98-14.05c-2.65-3.5-6.64-5.24-11.94-5.24-3.63,0-6.61.81-8.94,2.44-2.34,1.63-4.07,3.89-5.19,6.79-1.12,2.9-1.68,6.25-1.68,10.07,0,5.87,1.34,10.55,4.01,14.05,2.67,3.5,6.61,5.24,11.8,5.24Z"/>
    <path class="cls-1" d="M249.28,385.25l-18.5-60.67,13.23.11,11.83,38.86,12-38.86h11.38l11.94,38.86,11.89-38.86h13.23l-18.5,60.56h-10.54l-13.74-41.66-13.68,41.66h-10.54Z"/>
    <path class="cls-1" d="M319.65,335.29v-10.6h42.22v10.6h-42.22ZM361.88,385.25c-4,.75-7.92,1.07-11.75.98-3.83-.09-7.26-.8-10.29-2.13s-5.33-3.43-6.9-6.31c-1.38-2.62-2.11-5.29-2.19-8.02-.08-2.73-.11-5.81-.11-9.25v-52.65h13.46v51.87c0,2.43.03,4.56.08,6.39.06,1.83.44,3.33,1.15,4.49,1.35,2.24,3.49,3.5,6.45,3.76,2.95.26,6.32.11,10.09-.45v11.33Z"/>
    <path class="cls-1" d="M374.83,385.25v-80.75h12.06v42.5h1.63v38.24h-13.68ZM416.83,385.25v-29.16c0-1.91-.13-4.02-.39-6.34-.26-2.32-.87-4.55-1.82-6.7-.95-2.15-2.37-3.92-4.26-5.3-1.89-1.38-4.44-2.07-7.65-2.07-1.72,0-3.42.28-5.1.84s-3.21,1.52-4.57,2.89c-1.36,1.37-2.46,3.23-3.28,5.61-.82,2.38-1.23,5.41-1.23,9.11l-8.02-3.42c0-5.16,1-9.83,3-14.02,2-4.19,4.94-7.52,8.83-10.01,3.89-2.49,8.67-3.73,14.36-3.73,4.49,0,8.19.75,11.1,2.24,2.92,1.5,5.23,3.4,6.95,5.72,1.72,2.32,2.99,4.79,3.81,7.4.82,2.62,1.35,5.09,1.6,7.43.24,2.34.36,4.23.36,5.69v33.81h-13.68Z"/>
    <path class="cls-1" d="M493.43,323.23l-17.5,48.11c-2.24,6.17-.56,7.85,7.96,8.19l-1.91,5.72h-27.37l1.79-5.72c7.74-.34,10.21-2.24,12.34-8.3l18.84-50.81c2.02-5.5.79-7.63-6.84-8.07l1.79-5.61h23.44l4.6,59.78,40.71-59.78h25.46l-1.91,5.61c-7.51.45-10.43,2.13-12.34,8.3l-14.92,50.69c-1.79,5.94-.67,7.85,6.84,8.19l-1.79,5.72h-33.53l1.79-5.72c8.3-.34,10.77-2.47,12.56-8.41l14.02-47.22-42.62,62.69h-6.73l-4.71-63.37Z"/>
    <path class="cls-1" d="M614.89,373.81c0,1.23.56,1.68,1.57,1.68,2.8,0,6.5-3.48,10.43-8.08l3.81,3.03c-6.39,9.2-17.61,16.04-24.45,16.04-3.48,0-5.83-2.13-5.83-5.38,0-2.13.9-4.93,3.03-9.53l10.99-24h-2.13c-15.25,28.15-26.58,39.37-36.23,39.37-6.95,0-11.66-5.61-11.66-14.92,0-21.31,24.45-47.33,46.43-47.33,3.14,0,5.83.56,8.19,1.46l1.79-4.04h13.23l-18.17,48.11c-.67,1.68-1.01,2.92-1.01,3.59ZM581.35,376.73c4.93,0,13.79-9.08,22.88-23.44,3.93-6.06,8.52-14.13,10.32-18.39-1.68-2.92-4.26-4.37-7.63-4.37-12.79,0-29.72,21.87-29.72,38.69,0,4.82,1.35,7.51,4.15,7.51Z"/>
    <path class="cls-1" d="M654.03,335.79c0-1.12-.67-1.68-1.68-1.68-2.02,0-6.28,3.03-10.54,8.08l-3.81-3.03c6.5-9.2,17.94-16.04,25.35-16.04,3.48,0,5.72,1.57,5.72,4.93,0,2.35-.9,5.38-3.36,10.43l-11.78,23.66h2.02c7.51-13.91,12.45-22.43,18.06-28.94,5.72-6.5,10.99-10.21,16.37-10.21,5.94,0,9.08,4.04,9.08,8.19s-2.92,8.41-7.63,8.41c-3.14,0-4.37-1.35-5.83-2.69-1.35-1.12-1.91-1.91-3.59-1.91-2.13,0-4.71,1.68-8.08,5.61-7.63,8.97-15.25,23.89-19.07,31.51l-6.62,13.12h-14.24l18.62-45.98c.67-1.68,1.01-2.8,1.01-3.48Z"/>
    <path class="cls-1" d="M709.65,319.87c0-2.58-2.02-3.7-6.5-4.15l1.91-5.27,18.28-6.06h4.71l-10.77,28.71c-4.15,10.99-7.63,18.73-11.66,29.05h2.24c6.28-14.36,12.67-24.79,21.98-31.96,6.06-4.82,12.79-7.18,18.62-7.18,6.95,0,11.1,3.7,11.1,9.2,0,8.64-10.88,17.5-29.94,23.78.9,5.94,2.13,10.32,3.48,13.68,2.13,5.27,4.04,7.29,6.73,7.29,2.35,0,4.49-1.35,7.96-6.39l4.04,2.58c-5.5,9.64-9.76,13.79-15.81,13.79-6.5,0-10.21-3.59-13.35-12.11-1.35-3.81-2.92-8.97-4.15-15.59l-5.61,1.23-2.24,5.27-7.51,19.51h-14.58l20.41-61.91c.56-1.68.67-2.92.67-3.48ZM734.89,348.58c6.39-3.48,10.09-7.96,10.09-11.66,0-2.92-1.79-4.37-4.82-4.37-8.3,0-17.61,8.64-25.12,23.33,7.85-1.79,14.36-4.37,19.85-7.29Z"/>
    <path class="cls-1" d="M760.12,365.18c0-12.34,5.72-23.66,13.91-31.51,6.84-6.84,15.7-10.65,24.22-10.65s14.92,4.26,14.92,11.1c0,5.38-3.81,12.11-11.78,16.71-6.39,3.81-15.93,6.84-28.37,7.4l-.11,3.03c0,9.31,4.04,14.13,10.99,14.13,5.5,0,10.99-3.48,16.15-13.35l5.27,1.35c-5.94,15.7-16.15,23.55-26.36,23.55-11.33,0-18.84-8.41-18.84-21.76ZM781.09,351.94c10.77,0,19.96-9.42,19.96-17.61,0-3.25-1.91-5.5-5.61-5.5-5.05,0-10.88,3.81-15.03,9.42-2.69,3.7-4.71,7.96-5.94,12.22,2.13,1.12,4.37,1.46,6.62,1.46Z"/>
    <path class="cls-1" d="M813.95,381.44c0-1.91.56-4.15,1.79-7.18l16.82-41.61h-11.66l1.91-5.83c10.32-3.14,18.39-8.64,24.67-15.92h5.83l-5.5,13.79h19.29l-2.47,7.96h-19.96l-15.14,37.8c-.67,1.57-.9,2.92-.9,3.36,0,1.23.67,1.79,1.79,1.79,3.25,0,10.54-6.06,17.61-14.13l3.92,3.36c-8.64,10.77-22.65,22.09-31.96,22.09-4.37,0-6.06-2.24-6.06-5.5Z"/>
    <path class="cls-1" d="M860.72,381.89c0-2.02.45-4.49,1.68-7.4l14.47-34.99c.79-1.68,1.01-2.92,1.01-3.7s-.45-1.57-1.46-1.57c-2.58,0-6.5,3.36-10.32,7.96l-3.7-3.14c5.72-8.41,16.93-15.92,24.34-15.92,3.81,0,6.06,1.91,6.06,4.93,0,1.91-.67,4.37-1.91,7.4l-14.47,35.1c-.56,1.35-1.01,2.58-1.01,3.59s.56,1.57,1.46,1.57c2.8,0,6.62-3.36,10.43-7.85l3.81,3.03c-5.83,8.41-17.05,16.04-24.34,16.04-3.92,0-6.06-2.02-6.06-5.05ZM882.37,309.21c0-4.82,3.92-8.64,8.97-8.64s8.86,3.7,8.86,8.64c0,5.27-3.81,9.08-8.86,9.08s-8.97-3.81-8.97-9.08Z"/>
    <path class="cls-1" d="M934.07,381.77c0-1.79.56-4.26,1.79-7.18l12.11-29.5c1.01-2.47,1.57-4.49,1.57-6.28,0-2.47-1.01-4.26-3.48-4.26s-5.38,1.79-9.2,6.39c-8.08,9.53-16.26,24.11-19.85,31.18l-6.62,13.12h-13.57l17.05-46.21c.45-1.35.78-2.58.78-3.36,0-1.12-.56-1.57-1.46-1.57-2.35,0-6.84,3.25-10.99,8.08l-3.59-3.03c6.5-9.2,18.06-16.04,25.35-16.04,3.36,0,5.61,1.57,5.61,4.93,0,2.35-1.01,5.38-3.25,10.54l-10.65,23.55h2.02c4.49-7.96,11.44-20.52,19.18-28.94,5.83-6.5,12-10.09,17.83-10.09,6.28,0,9.53,3.81,9.53,9.08,0,1.91-.45,3.92-1.46,6.39l-13.12,32.08c-.67,1.68-1.01,2.8-1.01,3.59,0,.9.56,1.46,1.46,1.46,2.8,0,6.95-3.59,10.65-7.85l3.59,3.03c-5.72,8.3-16.93,15.93-24.22,15.93-4.04,0-6.06-1.91-6.06-5.05Z"/>
    <path class="cls-1" d="M958.63,396.02c0-5.5,7.29-10.65,21.53-15.48-2.36-1.68-3.48-3.59-3.48-5.61,0-2.8,2.8-5.5,8.86-8.41-7.74-1.46-12.11-6.84-12.11-15.03,0-2.24.34-4.26,1.12-6.73,4.15-12.34,17.16-21.64,30.5-21.64,3.14,0,5.94.56,8.3,1.57h20.19l-2.58,7.96h-10.09c.56,1.57.79,3.37.79,5.27,0,2.58-.45,5.27-1.46,7.85-4.49,11.78-16.49,20.64-29.27,21.08-2.02,1.35-2.8,2.35-2.8,3.36,0,1.46,1.68,2.8,5.27,4.37l14.02,6.06c7.18,3.03,10.54,6.62,10.54,10.88,0,8.52-14.58,15.37-33.31,15.37-15.93,0-26.02-4.26-26.02-10.88ZM987.56,401.06c10.43,0,17.72-2.69,17.72-6.28,0-1.91-2.13-3.7-7.18-5.83l-13.35-5.83h-.11c-8.64,2.92-13.91,7.18-13.91,10.99,0,4.26,6.39,6.95,16.82,6.95ZM1006.74,345.1c1.57-3.81,2.47-7.51,2.47-10.32,0-4.04-1.68-6.17-4.82-6.17-5.5,0-12,6.5-16.04,15.93-1.79,4.04-2.58,7.4-2.58,10.21,0,4.15,1.68,6.5,4.93,6.5,5.38,0,12.22-6.84,16.04-16.15Z"/>
    <path class="cls-1" d="M1090.23,386.93c-8.07,0-14.99-1.77-20.75-5.3-5.76-3.53-10.18-8.46-13.26-14.78-3.08-6.32-4.63-13.64-4.63-21.98s1.54-15.66,4.63-21.98c3.08-6.32,7.5-11.24,13.26-14.78,5.76-3.53,12.67-5.3,20.75-5.3,9.31,0,17.07,2.33,23.27,6.98,6.21,4.65,10.56,10.93,13.07,18.81l-13.63,3.76c-1.57-5.27-4.24-9.39-8.02-12.36-3.78-2.97-8.67-4.46-14.69-4.46-5.42,0-9.93,1.21-13.54,3.64-3.61,2.43-6.32,5.84-8.13,10.23-1.81,4.39-2.74,9.54-2.78,15.45,0,5.91.91,11.06,2.72,15.45,1.81,4.39,4.53,7.8,8.16,10.23,3.63,2.43,8.15,3.64,13.57,3.64,6.02,0,10.92-1.5,14.69-4.49,3.78-2.99,6.45-7.1,8.02-12.34l13.63,3.76c-2.5,7.89-6.86,14.16-13.07,18.81-6.21,4.65-13.96,6.98-23.27,6.98Z"/>
    <path class="cls-1" d="M1165.66,386.93c-6.06,0-11.35-1.37-15.87-4.09-4.52-2.73-8.03-6.5-10.51-11.3s-3.73-10.33-3.73-16.57,1.27-11.92,3.81-16.71c2.54-4.78,6.08-8.52,10.6-11.21,4.52-2.69,9.76-4.04,15.7-4.04s11.4,1.36,15.92,4.09c4.52,2.73,8.04,6.5,10.54,11.3,2.5,4.8,3.76,10.33,3.76,16.57s-1.26,11.82-3.79,16.63c-2.52,4.8-6.05,8.56-10.57,11.27-4.52,2.71-9.81,4.07-15.87,4.07ZM1165.66,374.26c5.38,0,9.38-1.79,12-5.38,2.62-3.59,3.92-8.22,3.92-13.91s-1.33-10.55-3.98-14.05c-2.65-3.5-6.64-5.24-11.94-5.24-3.63,0-6.61.81-8.94,2.44-2.34,1.63-4.07,3.89-5.19,6.79-1.12,2.9-1.68,6.25-1.68,10.07,0,5.87,1.34,10.55,4.01,14.05,2.67,3.5,6.61,5.24,11.8,5.24Z"/>
    <path class="cls-1" d="M1208.1,385.25v-60.56h11.94v18.79h1.68v41.78h-13.63ZM1244.61,385.25v-36.62c0-4.22-1.03-7.51-3.08-9.87-2.06-2.36-4.86-3.53-8.41-3.53s-6.2,1.18-8.27,3.53c-2.07,2.36-3.11,5.42-3.11,9.2l-6.06-4.04c0-3.93.97-7.46,2.92-10.6,1.94-3.14,4.57-5.62,7.88-7.43,3.31-1.81,7.02-2.72,11.13-2.72,4.52,0,8.31.96,11.35,2.89,3.05,1.93,5.33,4.54,6.84,7.85,1.51,3.31,2.27,7.04,2.27,11.19v40.15h-13.46ZM1280.95,385.25v-36.79c0-4.15-1.03-7.39-3.08-9.73-2.06-2.34-4.84-3.5-8.36-3.5-2.17,0-4.11.5-5.83,1.49-1.72.99-3.08,2.45-4.09,4.37-1.01,1.93-1.51,4.21-1.51,6.87l-6-3.53c-.04-4.19.91-7.88,2.83-11.07,1.92-3.2,4.53-5.69,7.82-7.49,3.29-1.79,6.95-2.69,10.99-2.69,6.69,0,11.82,2.01,15.39,6.03,3.57,4.02,5.36,9.3,5.36,15.84v40.21h-13.51Z"/>
    <path class="cls-1" d="M1308.93,412.17v-87.48h11.94v42.5h1.68v44.97h-13.63ZM1338.14,386.93c-5.91,0-10.86-1.4-14.86-4.21-4-2.8-7.01-6.63-9.03-11.47-2.02-4.84-3.03-10.27-3.03-16.29s1.01-11.55,3.03-16.37c2.02-4.82,4.98-8.63,8.89-11.41s8.74-4.18,14.5-4.18,10.68,1.39,14.89,4.18,7.47,6.58,9.79,11.38c2.32,4.8,3.48,10.27,3.48,16.4s-1.14,11.5-3.42,16.32-5.5,8.64-9.64,11.44-9.01,4.21-14.58,4.21ZM1336.07,374.82c3.51,0,6.41-.88,8.69-2.64,2.28-1.76,3.97-4.14,5.08-7.15,1.1-3.01,1.65-6.37,1.65-10.07s-.56-7-1.68-10.01c-1.12-3.01-2.86-5.4-5.21-7.18-2.36-1.78-5.35-2.66-8.97-2.66s-6.24.83-8.41,2.5c-2.17,1.66-3.77,3.98-4.79,6.95-1.03,2.97-1.54,6.44-1.54,10.4s.51,7.38,1.54,10.37c1.03,2.99,2.65,5.32,4.88,6.98,2.22,1.66,5.15,2.5,8.78,2.5Z"/>
    <path class="cls-1" d="M1395.06,386.93c-4.37,0-8.08-.83-11.1-2.5-3.03-1.66-5.32-3.88-6.87-6.64-1.55-2.77-2.33-5.81-2.33-9.14,0-2.92.49-5.54,1.46-7.88.97-2.34,2.47-4.35,4.49-6.06,2.02-1.7,4.64-3.09,7.85-4.18,2.43-.79,5.28-1.49,8.55-2.13,3.27-.63,6.82-1.22,10.65-1.77,3.83-.54,7.84-1.13,12.03-1.77l-4.82,2.75c.04-4.19-.9-7.27-2.8-9.25-1.91-1.98-5.12-2.97-9.65-2.97-2.73,0-5.36.64-7.91,1.91-2.54,1.27-4.32,3.46-5.33,6.56l-12.34-3.87c1.5-5.12,4.35-9.23,8.55-12.34,4.21-3.1,9.88-4.65,17.02-4.65,5.38,0,10.12.88,14.21,2.63,4.09,1.76,7.13,4.64,9.11,8.64,1.08,2.13,1.74,4.31,1.96,6.53.22,2.22.34,4.65.34,7.26v37.18h-11.83v-13.12l1.96,2.13c-2.73,4.37-5.92,7.58-9.56,9.62s-8.2,3.06-13.65,3.06ZM1397.75,376.17c3.07,0,5.68-.54,7.85-1.63s3.9-2.41,5.19-3.98c1.29-1.57,2.16-3.05,2.61-4.43.71-1.72,1.11-3.69,1.21-5.92.09-2.22.14-4.03.14-5.41l4.15,1.23c-4.08.64-7.57,1.2-10.49,1.68-2.92.49-5.42.94-7.51,1.37-2.09.43-3.94.91-5.55,1.43-1.57.56-2.9,1.22-3.98,1.96-1.08.75-1.92,1.61-2.5,2.58-.58.97-.87,2.11-.87,3.42,0,1.5.37,2.81,1.12,3.95.75,1.14,1.84,2.05,3.28,2.72,1.44.67,3.22,1.01,5.35,1.01Z"/>
    <path class="cls-1" d="M1442.61,385.25v-60.56h12.06v18.79h1.63v41.78h-13.68ZM1484.61,385.25v-29.16c0-1.91-.13-4.02-.39-6.34-.26-2.32-.87-4.55-1.82-6.7s-2.37-3.92-4.26-5.3c-1.89-1.38-4.44-2.07-7.65-2.07-1.72,0-3.42.28-5.1.84s-3.21,1.52-4.57,2.89-2.46,3.23-3.28,5.61c-.82,2.38-1.23,5.41-1.23,9.11l-8.02-3.42c0-5.16,1-9.83,3-14.02,2-4.19,4.94-7.52,8.83-10.01s8.67-3.73,14.36-3.73c4.49,0,8.19.75,11.1,2.24,2.92,1.5,5.23,3.4,6.95,5.72,1.72,2.32,2.99,4.79,3.81,7.4.82,2.62,1.36,5.09,1.6,7.43.24,2.34.36,4.23.36,5.69v33.81h-13.68Z"/>
    <path class="cls-1" d="M1518.59,412.17l11.66-32.02.22,9.42-26.41-64.88h14.07l18.73,48h-3.59l18.22-48h13.51l-33.76,87.48h-12.67Z"/>
  </g>
</svg>